<svg width="24" height="14" viewBox="0 0 24 14" fill="none" xmlns="http://www.w3.org/2000/svg">
<path d="M13.8187 1.31883C14.0829 1.06737 14.4343 0.928356 14.799 0.931115C15.1637 0.933875 15.513 1.07819 15.7733 1.33362C16.0336 1.58905 16.1845 1.9356 16.1941 2.30016C16.2038 2.66471 16.0714 3.01876 15.825 3.28758L8.34374 12.6438C8.2151 12.7824 8.05984 12.8936 7.88724 12.9708C7.71464 13.0479 7.52825 13.0895 7.33921 13.093C7.15017 13.0965 6.96237 13.0619 6.78703 12.9911C6.6117 12.9204 6.45242 12.815 6.31874 12.6813L1.35749 7.72008C1.21933 7.59134 1.10851 7.43609 1.03165 7.26359C0.954791 7.09109 0.913462 6.90488 0.910131 6.71606C0.906799 6.52724 0.941533 6.33969 1.01226 6.16459C1.08299 5.98948 1.18826 5.83042 1.32179 5.69688C1.45533 5.56335 1.61439 5.45808 1.78949 5.38735C1.9646 5.31662 2.15215 5.28189 2.34097 5.28522C2.52979 5.28855 2.716 5.32988 2.8885 5.40674C3.061 5.4836 3.21625 5.59442 3.34499 5.73258L7.27124 9.65695L13.7812 1.36008C13.7929 1.3456 13.8054 1.33183 13.8187 1.31883ZM12.0937 10.9563L13.8187 12.6813C13.9524 12.8147 14.1115 12.9199 14.2867 12.9904C14.4619 13.061 14.6495 13.0956 14.8383 13.0921C15.0271 13.0886 15.2132 13.0471 15.3857 12.9701C15.5581 12.8931 15.7132 12.7821 15.8419 12.6438L23.3269 3.28758C23.4613 3.15483 23.5676 2.99635 23.6395 2.8216C23.7113 2.64684 23.7472 2.4594 23.745 2.27047C23.7428 2.08154 23.7026 1.89498 23.6267 1.72195C23.5508 1.54892 23.4408 1.39296 23.3033 1.26339C23.1657 1.13381 23.0035 1.03327 22.8263 0.967786C22.6491 0.902296 22.4604 0.873195 22.2717 0.88222C22.083 0.891246 21.898 0.938213 21.7278 1.02032C21.5576 1.10242 21.4058 1.21797 21.2812 1.36008L14.7694 9.65695L13.86 8.74571L12.0919 10.9563H12.0937Z" fill="#3BAF77"/>
</svg>
