<svg width="10" height="14" viewBox="0 0 10 14" fill="none" xmlns="http://www.w3.org/2000/svg">
<path d="M9.70312 14H0.720703V12.1104L3.94629 8.84961C4.59668 8.18164 5.11816 7.625 5.51074 7.17969C5.90918 6.72852 6.19629 6.31836 6.37207 5.94922C6.55371 5.58008 6.64453 5.18457 6.64453 4.7627C6.64453 4.25293 6.50098 3.87207 6.21387 3.62012C5.93262 3.3623 5.55469 3.2334 5.08008 3.2334C4.58203 3.2334 4.09863 3.34766 3.62988 3.57617C3.16113 3.80469 2.67188 4.12988 2.16211 4.55176L0.685547 2.80273C1.05469 2.48633 1.44434 2.1875 1.85449 1.90625C2.27051 1.625 2.75098 1.39941 3.2959 1.22949C3.84668 1.05371 4.50586 0.96582 5.27344 0.96582C6.11719 0.96582 6.84082 1.11816 7.44434 1.42285C8.05371 1.72754 8.52246 2.14355 8.85059 2.6709C9.17871 3.19238 9.34277 3.78418 9.34277 4.44629C9.34277 5.15527 9.20215 5.80273 8.9209 6.38867C8.63965 6.97461 8.22949 7.55469 7.69043 8.12891C7.15723 8.70312 6.5127 9.33887 5.75684 10.0361L4.10449 11.5918V11.7148H9.70312V14Z" fill="#212529"/>
</svg>
